<?xml version="1.0" encoding="iso-8859-1"?>
<!-- Generator: Adobe Illustrator 19.0.0, SVG Export Plug-In . SVG Version: 6.00 Build 0)  -->
<svg version="1.1" id="Capa_1" xmlns="http://www.w3.org/2000/svg" xmlns:xlink="http://www.w3.org/1999/xlink" x="0px" y="0px"
	 viewBox="0 0 480 480" style="enable-background:new 0 0 480 480;" xml:space="preserve">
<circle style="fill:#46709C;" cx="456.062" cy="16" r="16"/>
<g>
	
		<rect x="360.644" y="154.844" transform="matrix(-0.4472 0.8944 -0.8944 -0.4472 727.7833 -124.1077)" style="fill:#D3D2D6;" width="83.197" height="16"/>
	
		<rect x="275.269" y="68.956" transform="matrix(-0.8944 0.4472 -0.4472 -0.8944 636.9711 3.5426)" style="fill:#D3D2D6;" width="85.597" height="16"/>
</g>
<polyline style="fill:#D94A56;" points="71.262,223.2 32.062,184 8.062,208 40.062,240 "/>
<g>
	<path style="fill:#42A24F;" d="M184.062,48L184.062,48c26.4,0,48,21.6,48,48l0,0c0-26.4,21.6-48,48-48l0,0c-26.4,0-48-21.6-48-48
		l0,0C232.062,26.4,210.462,48,184.062,48z"/>
	<path style="fill:#42A24F;" d="M56.062,72L56.062,72c26.4,0,48,21.6,48,48l0,0c0-26.4,21.6-48,48-48l0,0c-26.4,0-48-21.6-48-48l0,0
		C104.062,50.4,82.462,72,56.062,72z"/>
</g>
<g>
	<path style="fill:#F48827;" d="M336.062,280L336.062,280c26.4,0,48,21.6,48,48l0,0c0-26.4,21.6-48,48-48l0,0c-26.4,0-48-21.6-48-48
		l0,0C384.062,258.4,362.462,280,336.062,280z"/>
	<path style="fill:#F48827;" d="M280.062,384L280.062,384c26.4,0,48,21.6,48,48l0,0c0-26.4,21.6-48,48-48l0,0c-26.4,0-48-21.6-48-48
		l0,0C328.062,362.4,306.462,384,280.062,384z"/>
</g>
<g>
	<circle style="fill:#789DC3;" cx="408.062" cy="72" r="64"/>
	<path style="fill:#789DC3;" d="M112.062,208L112.062,208c61.6,0,112,50.4,112,112v160l0,0h-224l0,0V320
		C0.062,258.4,50.462,208,112.062,208z"/>
</g>
<rect x="0.062" y="384" style="fill:#D3D2D6;" width="224" height="64"/>
<g>
	<rect x="24.062" y="408" style="fill:#D94A56;" width="16" height="16"/>
	<rect x="56.062" y="408" style="fill:#D94A56;" width="16" height="16"/>
</g>
<path style="fill:#FFFFFF;" d="M56.062,352h136v-32c0-44-36-80-80-80l-56,80"/>
<circle style="fill:#D94A56;" cx="56.062" cy="336" r="16"/>
<rect x="268.057" y="136.005" transform="matrix(-0.7071 0.7071 -0.7071 -0.7071 675.5116 8.2036)" style="fill:#D3D2D6;" width="135.999" height="16"/>
<rect x="395.257" y="-11.194" transform="matrix(-0.7071 0.7071 -0.7071 -0.7071 751.5121 -175.2754)" style="fill:#D94A56;" width="33.6" height="158.398"/>
<path style="fill:#D3D2D6;" d="M136.862,244l-32,47.2l13.6,8.8l32.8-49.6C147.262,248,142.462,245.6,136.862,244z"/>
<rect x="184.062" y="384" style="fill:#D94A56;" width="16" height="64"/>
<polygon style="fill:#789DC3;" points="253.662,109.6 242.462,98.4 232.062,108.8 221.662,98.4 210.462,109.6 220.862,120 
	210.462,130.4 221.662,141.6 232.062,131.2 242.462,141.6 253.662,130.4 243.262,120 "/>
<polygon style="fill:#42A24F;" points="181.662,149.6 170.462,138.4 160.062,148.8 149.662,138.4 138.462,149.6 148.862,160 
	138.462,170.4 149.662,181.6 160.062,171.2 170.462,181.6 181.662,170.4 171.262,160 "/>
<polygon style="fill:#F48827;" points="253.662,197.6 242.462,186.4 232.062,196.8 221.662,186.4 210.462,197.6 220.862,208 
	210.462,218.4 221.662,229.6 232.062,219.2 242.462,229.6 253.662,218.4 243.262,208 "/>
<polygon style="fill:#42A24F;" points="333.662,221.6 322.462,210.4 312.062,220.8 301.662,210.4 290.462,221.6 300.862,232 
	290.462,242.4 301.662,253.6 312.062,243.2 322.462,253.6 333.662,242.4 323.262,232 "/>
<polygon style="fill:#D94A56;" points="293.662,285.6 282.462,274.4 272.062,284.8 261.662,274.4 250.462,285.6 260.862,296 
	250.462,306.4 261.662,317.6 272.062,307.2 282.462,317.6 293.662,306.4 283.262,296 "/>
<g>
</g>
<g>
</g>
<g>
</g>
<g>
</g>
<g>
</g>
<g>
</g>
<g>
</g>
<g>
</g>
<g>
</g>
<g>
</g>
<g>
</g>
<g>
</g>
<g>
</g>
<g>
</g>
<g>
</g>
</svg>
