<?xml version="1.0" encoding="iso-8859-1"?>
<!-- Generator: Adobe Illustrator 15.1.0, SVG Export Plug-In . SVG Version: 6.00 Build 0)  -->
<!DOCTYPE svg PUBLIC "-//W3C//DTD SVG 1.1//EN" "http://www.w3.org/Graphics/SVG/1.1/DTD/svg11.dtd">
<svg version="1.1" xmlns="http://www.w3.org/2000/svg" xmlns:xlink="http://www.w3.org/1999/xlink" x="0px" y="0px"
	 width="47.999px" height="48px" viewBox="0 0 47.999 48" style="enable-background:new 0 0 47.999 48;" xml:space="preserve">
<g id="_x30_09_x5F_Deadpool">
	<path style="fill-rule:evenodd;clip-rule:evenodd;fill:#603A70;" d="M47.999,42.09c0,3.264-2.646,5.91-5.91,5.91H5.91
		C2.646,48,0,45.354,0,42.09V5.911C0,2.646,2.646,0,5.91,0h36.179c3.265,0,5.91,2.646,5.91,5.911V42.09z"/>
	<path style="fill:#E24C3B;" d="M35.306,14.726c0,0-0.574-1.879-1.546-3.552c-1.49-2.953-5.297-5.053-9.762-5.053
		c-4.469,0-8.279,2.105-9.764,5.063c-0.968,1.669-1.543,3.542-1.543,3.542c-1.252,2.996-0.959,7.966-0.957,8.135
		c0.059,3.214,1.79,7.14,1.79,7.14s3.419,6.215,4.563,8.253c0.981,2.12,3.261,3.606,5.917,3.606c2.691,0,4.994-1.526,5.953-3.691
		C31.146,36.05,34.474,30,34.474,30s1.731-3.926,1.79-7.14C36.267,22.691,36.559,17.722,35.306,14.726z"/>
	<g>
		<path d="M34.354,24.588c-0.898,4.841-3.465,8.438-5.738,8.035c-2.268-0.402-3.902-2.169-3.004-7.01
			c0.898-4.841,3.988-10.922,6.258-10.519C34.142,15.496,35.253,19.747,34.354,24.588z"/>
		<path d="M13.608,24.706c0.844,4.831,3.375,8.4,5.648,7.971s3.93-2.214,3.084-7.046c-0.846-4.831-3.871-10.877-6.143-10.448
			C13.923,15.611,12.765,19.875,13.608,24.706z"/>
	</g>
	<g>
		<path style="fill:#FFFFFF;" d="M27.298,27.391c0,0,2.85-2.774,4.434-3.269c1.582-0.496,0.631,1.982-0.535,2.351
			C30.032,26.84,27.298,27.391,27.298,27.391z"/>
		<path style="fill:#FFFFFF;" d="M20.698,27.391c0,0-2.848-2.774-4.432-3.269c-1.582-0.496-0.631,1.982,0.535,2.351
			C17.966,26.84,20.698,27.391,20.698,27.391z"/>
	</g>
</g>
<g id="Layer_1">
</g>
</svg>
